<svg width="511" height="514" viewBox="0 0 511 514" fill="none" xmlns="http://www.w3.org/2000/svg">
<g clip-path="url(#clip0_66_33)">
<path d="M336.186 280.638C336.186 277.555 334.96 274.603 332.789 272.424C330.618 270.245 327.676 269.025 324.604 269.025H127.774C124.702 269.025 121.76 270.245 119.589 272.424C117.407 274.603 116.191 277.555 116.191 280.638V449.138H336.186V280.638Z" fill="#FAC100"/>
<path d="M255.134 269.025V338.747L226.184 321.317L197.245 338.747V269.025H255.134Z" fill="#F87600"/>
<path d="M370.922 83.0938H127.774C121.38 83.0938 116.191 88.3013 116.191 94.7179V210.915C116.191 217.332 121.38 222.539 127.774 222.539H370.922C377.315 222.539 382.493 217.332 382.493 210.915V94.7179C382.493 88.3013 377.315 83.0938 370.922 83.0938Z" fill="#00CF66"/>
<path d="M69.8739 480.568L112.675 473.399C119.079 472.332 125.657 473.323 131.464 476.232L166.992 494.066C183.47 502.334 202.553 503.696 220.029 497.846L357.017 452.025C359.611 451.154 361.999 449.77 364.04 447.962C366.092 446.142 367.752 443.931 368.925 441.458C370.097 438.985 370.77 436.305 370.879 433.559C370.998 430.825 370.564 428.091 369.609 425.52C367.98 421.162 364.908 417.491 360.903 415.116C356.898 412.752 352.208 411.836 347.617 412.512L244.604 427.829C247.177 425.291 248.99 422.088 249.858 418.569C251.041 413.83 250.433 408.819 248.143 404.505C245.863 400.191 242.064 396.879 237.484 395.212L165.386 371.506C154.65 367.977 143.068 367.998 132.344 371.593L69.8739 392.488V480.568Z" fill="#FFD188"/>
<path d="M440.393 138.447L396.04 158.362C387.107 162.371 377.446 164.441 367.666 164.441H253.657C249.218 164.441 244.919 162.861 241.532 159.974C238.146 157.098 235.888 153.1 235.15 148.709C234.737 146.226 234.824 143.676 235.41 141.225C235.996 138.785 237.071 136.475 238.558 134.438C240.045 132.412 241.923 130.712 244.083 129.427C246.243 128.141 248.642 127.302 251.128 126.954L316.854 117.977C320.566 117.465 324.105 116.06 327.155 113.881C330.216 111.702 332.691 108.804 334.385 105.449L345.652 83.0938H169.673L187.671 60.3359C193.977 52.3614 201.945 45.8684 211.009 41.3256L255.774 20.7356C270.319 13.4256 286.96 11.4864 302.797 15.234L440.393 45.9447V138.447Z" fill="#FFD188"/>
<path d="M58.3026 367.791H23.5671C17.1736 367.791 11.985 372.999 11.985 379.415V483.999C11.985 490.416 17.1736 495.624 23.5671 495.624H58.3026C64.6961 495.624 69.8739 490.416 69.8739 483.999V379.415C69.8739 372.999 64.6961 367.791 58.3026 367.791Z" fill="#00CF66"/>
<path d="M486.7 24.9952H451.964C445.571 24.9952 440.393 30.1917 440.393 36.6084V141.192C440.393 147.609 445.571 152.817 451.964 152.817H486.7C493.093 152.817 498.282 147.609 498.282 141.192V36.6084C498.282 30.1917 493.093 24.9952 486.7 24.9952Z" fill="#00CF66"/>
<path d="M347.758 400.92V280.638C347.758 274.483 345.315 268.567 340.973 264.209C336.632 259.852 330.748 257.412 324.604 257.401H127.774C121.63 257.412 115.746 259.852 111.404 264.209C107.062 268.567 104.62 274.483 104.609 280.638V368.619L81.1628 376.463C80.4573 370.874 77.7436 365.732 73.5427 361.996C69.3311 358.259 63.9145 356.189 58.3025 356.178H23.5671C17.4232 356.178 11.5399 358.629 7.19796 362.987C2.85603 367.345 0.413687 373.249 0.402832 379.415V483.999C0.413687 490.166 2.85603 496.07 7.19796 500.428C11.5399 504.786 17.4232 507.237 23.5671 507.237H58.3025C63.2741 507.226 68.1153 505.592 72.099 502.585C76.0828 499.589 78.9919 495.373 80.3921 490.58L114.585 484.871C118.569 484.196 122.672 484.806 126.286 486.636L161.814 504.47C171.323 509.263 181.69 512.128 192.316 512.891C202.943 513.643 213.603 512.281 223.698 508.871L360.686 463.05C364.756 461.688 368.501 459.52 371.714 456.677C374.927 453.823 377.533 450.358 379.378 446.469C381.223 442.591 382.276 438.375 382.461 434.071C382.645 429.779 381.972 425.487 380.463 421.456C377.978 414.93 373.44 409.396 367.546 405.681C361.641 401.977 354.694 400.3 347.758 400.92ZM58.3025 483.999H23.5671V379.415H58.3025V483.999ZM243.551 280.638V318.223L232.143 311.349C230.341 310.259 228.289 309.693 226.184 309.693C224.089 309.693 222.026 310.259 220.224 311.349L208.816 318.223V280.638H243.551ZM127.774 280.638H185.662V338.747C185.662 340.796 186.205 342.822 187.236 344.598C188.268 346.373 189.755 347.844 191.535 348.857C193.326 349.87 195.334 350.393 197.386 350.361C199.437 350.339 201.445 349.761 203.204 348.705L226.184 334.858L249.174 348.705C250.933 349.761 252.941 350.328 254.981 350.361C257.033 350.382 259.052 349.859 260.832 348.846C262.623 347.833 264.099 346.373 265.131 344.587C266.162 342.811 266.715 340.796 266.715 338.737V280.638H324.604V404.189L261.918 413.514C261.863 407.065 259.844 400.801 256.11 395.55C252.387 390.299 247.144 386.322 241.098 384.176L169 360.46C155.888 356.178 141.765 356.211 128.685 360.558L127.774 360.874V280.638ZM358.482 436.457C357.983 437.525 357.267 438.473 356.387 439.257C355.508 440.041 354.477 440.63 353.359 441L216.371 486.821C209.163 489.261 201.543 490.242 193.955 489.697C186.368 489.152 178.965 487.115 172.17 483.673L136.631 465.839C128.642 461.819 119.589 460.457 110.775 461.939L81.4559 466.841V400.866L136.012 382.618C144.381 379.829 153.413 379.808 161.782 382.553L233.532 406.128C235.443 406.825 237.017 408.22 237.95 410.028C238.895 411.836 239.112 413.928 238.591 415.9C238.059 417.872 236.81 419.56 235.095 420.65C233.38 421.739 231.318 422.142 229.321 421.783L150.927 407.479C149.429 407.196 147.877 407.206 146.39 407.522C144.892 407.838 143.47 408.448 142.21 409.32C140.951 410.181 139.877 411.292 139.052 412.577C138.216 413.874 137.651 415.312 137.38 416.815C137.098 418.329 137.13 419.876 137.456 421.38C137.782 422.872 138.4 424.289 139.28 425.552C140.148 426.805 141.266 427.884 142.558 428.701C143.839 429.529 145.282 430.084 146.791 430.346L225.174 444.65C229.397 445.423 233.728 445.303 237.907 444.312C242.086 443.31 246.004 441.458 249.435 438.865L349.321 424.016C351.296 423.722 353.305 424.125 355.03 425.138C356.746 426.162 358.07 427.731 358.775 429.605C359.188 430.705 359.383 431.882 359.329 433.058C359.275 434.235 358.992 435.39 358.482 436.457Z" fill="black"/>
<path d="M486.7 13.3711H451.964C446.7 13.382 441.598 15.1904 437.495 18.5023C433.392 21.8141 430.526 26.4332 429.386 31.5862L305.456 3.92587C287.112 -0.431801 267.834 1.77972 250.954 10.1682L205.831 30.9325C195.258 36.2489 185.966 43.8203 178.596 53.1131L164.072 71.4698H127.774C121.63 71.4806 115.746 73.9318 111.404 78.2895C107.063 82.6472 104.62 88.5518 104.609 94.7179V210.915C104.62 217.081 107.063 222.986 111.404 227.344C115.746 231.701 121.63 234.152 127.774 234.163H370.922C377.055 234.152 382.949 231.701 387.291 227.344C391.622 222.986 394.065 217.081 394.075 210.915V171.555C396.322 170.77 398.569 169.942 400.762 168.962L433.023 154.483C435.139 157.545 437.972 160.05 441.272 161.782C444.572 163.515 448.241 164.43 451.964 164.43H486.7C492.844 164.43 498.727 161.979 503.069 157.621C507.411 153.263 509.853 147.359 509.864 141.192V36.6084C509.853 30.4423 507.411 24.5376 503.069 20.18C498.727 15.8332 492.844 13.382 486.7 13.3711ZM370.922 210.915H127.774V94.7179H326.819L324.062 100.198C323.204 101.875 321.967 103.324 320.447 104.414C318.917 105.503 317.147 106.2 315.291 106.451L249.565 115.439C241.945 116.484 234.998 120.385 230.135 126.365C225.283 132.357 222.862 139.972 223.383 147.675C223.904 155.366 227.323 162.589 232.946 167.861C238.558 173.123 245.972 176.054 253.657 176.054H367.666C368.762 176.054 369.837 175.934 370.922 175.89V210.915ZM391.307 147.751C383.872 151.095 375.818 152.827 367.666 152.817H253.657C251.834 152.817 250.086 152.13 248.751 150.877C247.427 149.635 246.612 147.925 246.493 146.106C246.363 144.276 246.938 142.478 248.089 141.062C249.239 139.646 250.878 138.719 252.68 138.469L318.406 129.492C323.975 128.73 329.283 126.616 333.864 123.348C338.444 120.069 342.168 115.722 344.708 110.689L355.986 88.3448C356.876 86.5691 357.299 84.5972 357.223 82.6145C357.147 80.6318 356.561 78.7035 355.519 77.0149C354.488 75.3154 353.033 73.9209 351.307 72.9514C349.581 71.9818 347.638 71.4698 345.663 71.4698H193.641L196.734 67.5587C201.912 61.0222 208.425 55.6732 215.839 51.882L260.952 31.1286C273.12 25.0388 287.047 23.4264 300.279 26.5858L428.811 55.2701V130.919L391.307 147.751ZM486.7 141.192H451.964V36.6084H486.7V141.192Z" fill="black"/>
</g>
<defs>
<clipPath id="clip0_66_33">
<rect width="510.438" height="513.654" fill="white"/>
</clipPath>
</defs>
</svg>
