<svg width="1024" height="321" viewBox="0 0 1024 321" fill="none" xmlns="http://www.w3.org/2000/svg">
<path d="M1019.94 94.83C1010.82 68.08 985.294 49.24 955.504 49.24H954.894C936.044 49.24 918.414 57.14 905.654 69.91C893.494 57.14 875.864 49.24 857.024 49.24H856.414C839.394 49.24 823.584 55.32 812.034 65.65V60.18C811.424 55.32 807.174 51.06 801.704 51.06H756.114C750.644 51.06 746.384 55.32 746.384 60.79V308.83C746.384 314.3 750.644 318.56 756.114 318.56H801.704C806.564 318.56 810.824 314.91 811.434 310.05V132.53C811.6 131.912 811.804 131.304 812.044 130.71C812.654 122.81 818.124 116.12 827.244 115.51H835.754C840.014 115.51 843.054 116.73 845.484 119.16C849.744 122.2 851.564 127.06 851.564 132.53L852.174 309.44C852.174 314.91 856.434 319.17 861.904 319.17H907.494C912.964 319.17 917.224 314.91 917.824 309.44V131.92C917.824 126.45 920.254 120.98 925.124 117.94C927.554 116.12 929.984 115.51 933.634 114.9H941.534C951.864 116.12 957.344 123.41 957.344 131.92L957.954 308.83C957.954 314.3 962.214 318.56 967.684 318.56H1013.27C1018.74 318.56 1023.6 314.3 1023.6 308.83V118.55C1023.6 105.78 1021.78 100.31 1019.95 94.84M711.124 51.68H685.594V9.12C685.594 4.26 681.334 0 675.864 0C675.254 0 674.644 0 674.644 0C645.464 7.9 650.934 48.03 598.654 51.67H593.184C592.574 51.67 591.964 51.67 591.364 51.67C586.504 52.89 583.464 57.14 583.464 61.4V106.99C583.464 113.07 587.724 117.32 593.194 117.32H620.554V310.64C620.554 316.11 625.414 320.37 630.884 320.37H675.874C681.344 320.37 685.604 316.11 685.604 310.64V117.32H711.134C717.214 117.32 721.464 113.06 721.464 106.99V61.4C721.464 55.93 717.204 51.67 711.134 51.67" fill="#00BAF2"/>
<path d="M547.584 51.66H501.994C495.914 51.66 491.664 55.92 491.664 61.39V156.23C491.664 161.7 486.804 166.56 480.724 166.56H461.874C455.794 166.56 450.934 161.7 450.934 155.62V61.39C450.934 55.92 446.674 51.66 441.204 51.66H395.614C389.534 51.66 385.284 55.92 385.284 61.39V164.74C385.284 204.26 413.244 232.22 452.764 232.22C452.764 232.22 481.944 232.22 483.164 232.22C488.024 232.83 492.284 237.69 492.284 243.16C492.284 248.63 488.024 252.89 483.164 253.49C482.554 253.49 482.554 253.49 482.554 253.49L415.684 254.1C410.214 254.1 405.354 258.36 405.354 263.83V309.42C405.354 314.89 410.214 319.75 415.684 319.75H490.464C529.374 319.75 557.334 291.79 557.334 252.27V61.38C557.334 55.91 553.074 51.65 547.604 51.65M106.244 134.94V163.51C106.244 168.98 101.384 173.84 95.3036 173.84H66.1236V117.3H95.3036C101.384 117.3 106.244 122.16 106.244 128.24V134.93V134.94ZM109.894 51.65H10.1936C4.72362 51.65 0.463623 55.91 0.463623 61.38V106.37V106.98V309.42C0.463623 314.89 4.72362 319.15 9.58362 319.15H56.3936C61.8636 319.15 66.1236 314.89 66.1236 309.42V240.12H109.894C146.374 240.12 171.904 214.59 171.904 178.11V113.67C171.904 77.19 146.374 51.66 109.894 51.66V51.65ZM295.314 241.93V249.23C295.314 249.84 295.314 250.45 295.314 251.05C295.137 251.47 294.934 251.877 294.704 252.27C292.884 256.53 289.234 259.57 284.374 259.57H265.524C259.444 259.57 254.584 254.71 254.584 249.24V240.73C254.584 240.73 254.584 240.73 254.584 240.12V217.63V210.33C254.584 204.86 259.444 200 265.524 200H284.374C290.454 200 295.314 204.86 295.314 210.33V241.94V241.93ZM288.014 51.65H224.794C219.324 51.65 214.464 55.91 214.464 61.38V79.01C214.464 79.01 214.464 79.01 214.464 79.62V103.94C214.464 109.41 219.324 114.27 225.404 114.27H285.584C290.444 114.88 294.094 118.53 294.704 124V129.47C294.094 134.94 290.444 138.59 285.584 139.2H255.794C216.274 139.2 187.704 165.34 187.704 202.42V255.31C187.704 292.39 212.024 318.53 251.534 318.53H334.214C349.414 318.53 360.964 306.98 360.964 293V120.35C360.964 78.4 339.684 51.65 288.014 51.65Z" fill="#1F336B"/>
</svg>
