<svg width="508" height="521" viewBox="0 0 508 521" fill="none" xmlns="http://www.w3.org/2000/svg">
<g clip-path="url(#clip0_66_25)">
<mask id="mask0_66_25" style="mask-type:luminance" maskUnits="userSpaceOnUse" x="0" y="0" width="508" height="512">
<path d="M0.0715027 0H507.607V511.861H0.0715027V0Z" fill="white"/>
</mask>
<g mask="url(#mask0_66_25)">
<path d="M454.879 0H26.4351C11.9389 0 0.0715027 12.1843 0.0715027 27.081V75.8353C0.0715027 90.7235 11.9389 102.916 26.4351 102.916H453.561C468.057 102.916 479.925 90.7235 479.925 75.8353V27.081C481.243 12.1843 469.376 0 454.879 0ZM454.879 272.179H26.4351C11.9389 272.179 0.0715027 284.363 0.0715027 299.26V348.014C0.0715027 362.911 11.9389 375.095 26.4351 375.095H453.561C468.057 375.095 479.925 362.902 479.925 348.014V299.26C481.243 284.363 469.376 272.179 454.879 272.179ZM267.68 408.944H26.4351C11.9389 408.944 0.0715027 421.137 0.0715027 436.034V484.78C0.0715027 499.676 11.9389 511.861 26.4351 511.861H267.68C282.185 511.861 294.044 499.676 294.044 484.78V436.034C294.044 421.137 282.185 408.944 267.68 408.944ZM481.243 136.765H26.4351C11.9389 136.765 0.0715027 148.958 0.0715027 163.846V212.601C0.0715027 227.497 11.9389 239.682 26.4351 239.682H481.243C495.739 239.682 507.607 227.497 507.607 212.601V163.846C507.607 148.958 495.739 136.765 481.243 136.765Z" fill="#0BA4DB"/>
</g>
</g>
<defs>
<clipPath id="clip0_66_25">
<rect width="507.535" height="520.363" fill="white" transform="translate(0.0715027)"/>
</clipPath>
</defs>
</svg>
