<svg width="435" height="512" viewBox="0 0 435 512" fill="none" xmlns="http://www.w3.org/2000/svg">
<path d="M369.674 38.58C345.964 11.58 303.154 0 248.344 0H89.3136C83.8948 0.00199837 78.6544 1.93642 74.5339 5.45566C70.4135 8.9749 67.6832 13.8482 66.8336 19.2L0.613593 439.17C-0.716407 447.45 5.69357 454.95 14.0936 454.95H112.284L136.944 298.55L136.174 303.45C137.924 292.38 147.384 284.23 158.574 284.23H205.234C296.894 284.23 368.654 247.01 389.624 139.31C390.234 136.13 390.784 133.02 391.244 129.99C388.604 128.6 388.604 128.6 391.244 129.99C397.504 90.18 391.214 63.09 369.684 38.57" fill="#27346A"/>
<path d="M174.504 115.66C177.187 114.382 180.122 113.719 183.094 113.72H307.774C322.534 113.72 336.304 114.69 348.894 116.71C352.417 117.271 355.922 117.942 359.404 118.72C364.336 119.805 369.212 121.133 374.014 122.7C380.184 124.77 385.954 127.17 391.254 130C397.494 90.19 391.204 63.1 369.674 38.58C345.964 11.58 303.154 0 248.344 0H89.3136C78.1036 0 68.5836 8.15 66.8336 19.2L0.6136 439.16C-0.7164 447.46 5.6936 454.94 14.0836 454.94H112.284L163.434 130.53C163.938 127.342 165.208 124.324 167.137 121.735C169.065 119.147 171.593 117.065 174.504 115.67V115.66Z" fill="#27346A"/>
<path d="M389.614 139.32C368.644 247 296.884 284.24 205.224 284.24H158.544C147.354 284.24 137.904 292.39 136.164 303.46L105.484 497.91C104.324 505.15 109.944 511.74 117.264 511.74H200.024C204.764 511.739 209.349 510.046 212.952 506.966C216.556 503.887 218.943 499.622 219.684 494.94L220.504 490.71L236.094 391.86L237.094 386.4C237.834 381.718 240.221 377.453 243.825 374.374C247.429 371.294 252.013 369.601 256.754 369.6H269.154C349.334 369.6 412.094 337.02 430.444 242.83C438.094 203.46 434.134 170.59 413.884 147.5C407.744 140.51 400.114 134.73 391.214 130.02C390.734 133.06 390.214 136.16 389.594 139.34L389.614 139.32Z" fill="#2790C3"/>
<path d="M369.294 121.26C366.023 120.307 362.721 119.463 359.394 118.73C355.917 117.96 352.419 117.29 348.904 116.72C336.304 114.7 322.544 113.73 307.764 113.73H183.104C180.129 113.725 177.192 114.396 174.514 115.69C171.596 117.078 169.06 119.157 167.128 121.746C165.195 124.336 163.924 127.358 163.424 130.55L136.934 298.56L136.164 303.46C137.914 292.39 147.374 284.24 158.564 284.24H205.244C296.904 284.24 368.664 247.02 389.614 139.32C390.244 136.14 390.774 133.05 391.244 130C385.934 127.19 380.194 124.78 374.004 122.72C372.442 122.206 370.872 121.719 369.294 121.26Z" fill="#1F264F"/>
</svg>
