<svg width="1023" height="426" viewBox="0 0 1023 426" fill="none" xmlns="http://www.w3.org/2000/svg">
<path d="M1022.61 219.73C1022.61 147.05 987.407 89.71 920.127 89.71C852.557 89.71 811.677 147.06 811.677 219.16C811.677 304.61 859.937 347.76 929.207 347.76C962.987 347.76 988.537 340.1 1007.85 329.31V272.53C988.547 282.18 966.397 288.14 938.297 288.14C910.757 288.14 886.347 278.49 883.227 244.99H1022.05C1022.05 241.3 1022.62 226.54 1022.62 219.72L1022.61 219.73ZM882.367 192.76C882.367 160.68 901.957 147.34 919.837 147.34C937.157 147.34 955.607 160.68 955.607 192.76H882.367Z" fill="black"/>
<path d="M702.097 89.71C674.277 89.71 656.387 102.77 646.457 111.85L642.767 94.25H580.307V425.26L651.277 410.21L651.557 329.87C661.777 337.25 676.827 347.75 701.807 347.75C752.627 347.75 798.897 306.87 798.897 216.88C798.617 134.55 751.767 89.7 702.087 89.7L702.097 89.71ZM685.067 285.31C668.317 285.31 658.377 279.35 651.567 271.97L651.287 166.65C658.667 158.42 668.887 152.74 685.067 152.74C710.897 152.74 728.787 181.7 728.787 218.89C728.787 256.93 711.187 285.32 685.067 285.32V285.31Z" fill="black"/>
<path d="M553.907 0L482.647 15.05V72.96L553.907 57.63V0Z" fill="black"/>
<path d="M482.647 94.53H553.907V342.93H482.647V94.53Z" fill="black"/>
<path d="M406.287 115.54L401.747 94.53H340.427V342.93H411.397V174.58C428.147 152.72 456.537 156.7 465.337 159.82V94.53C456.257 91.12 423.037 84.88 406.287 115.54Z" fill="black"/>
<path d="M264.337 32.93L195.067 47.69L194.787 275.08C194.787 317.1 226.297 348.04 268.317 348.04C291.597 348.04 308.627 343.78 317.997 338.67V281.04C308.917 284.73 264.057 297.79 264.057 255.77V154.99H317.997V94.52H264.057L264.337 32.92V32.93Z" fill="black"/>
<path d="M72.4268 166.64C72.4268 155.57 81.5068 151.31 96.5568 151.31C118.137 151.31 145.387 157.84 166.957 169.48V102.77C143.397 93.4 120.117 89.71 96.5568 89.71C38.9268 89.71 0.606781 119.8 0.606781 170.05C0.606781 248.4 108.487 235.91 108.487 269.69C108.487 282.75 97.1268 287.01 81.2368 287.01C57.6768 287.01 27.5868 277.36 3.73678 264.3V331.87C30.1368 343.23 56.8268 348.05 81.2368 348.05C140.287 348.05 180.877 318.81 180.877 267.99C180.597 183.39 72.4268 198.44 72.4268 166.64Z" fill="black"/>
</svg>
