<?xml version="1.0" encoding="UTF-8" standalone="no"?>
<svg baseProfile="tiny" opacity="0.4" version="1.2" viewBox="0.00 0.00 575.00 434.00"
    xmlns="http://www.w3.org/2000/svg">
    <path d="
  M 84.99 358.63
  C 86.12 372.45 74.78 371.53 65.03 371.50
  C 56.24 371.46 49.78 368.66 50.81 358.47" fill="none" stroke="#2a7643" stroke-linecap="butt"
        stroke-width="5.00" />
    <path d="
  M 331.57 0.00
  L 339.54 0.00
  C 379.32 2.99 407.93 33.91 408.75 73.55
  A 0.74 0.74 0.0 0 1 407.99 74.31
  L 386.26 73.94
  A 0.34 0.33 89.1 0 1 385.93 73.61
  Q 385.15 52.50 371.64 38.19
  C 354.77 20.34 327.69 17.20 307.40 31.31
  Q 286.53 45.82 284.96 73.46
  Q 284.94 73.93 284.47 73.94
  L 263.26 74.31
  A 1.00 1.00 0.0 0 1 262.24 73.30
  C 262.78 33.66 291.94 3.20 331.57 0.00
  Z" fill="#113d22" />
    <path d="
  M 282.15 225.59
  C 298.81 241.88 314.16 257.44 330.08 273.40
  C 335.88 279.22 343.13 281.66 350.83 278.34
  Q 354.59 276.71 361.27 270.00
  Q 405.34 225.75 448.93 182.19
  Q 450.06 181.06 450.11 182.66
  Q 452.28 255.22 454.29 326.25
  C 454.57 336.08 448.64 339.24 439.83 339.24
  Q 336.98 339.26 234.13 339.24
  C 223.50 339.24 218.45 335.73 218.84 324.83
  Q 219.49 306.20 219.88 287.58
  C 220.03 280.49 221.22 275.63 224.96 270.19
  Q 228.61 264.91 228.99 263.95
  C 231.89 256.69 227.86 248.11 220.72 245.04
  Q 217.81 243.79 211.97 243.77
  C 204.18 243.74 190.05 245.27 183.41 242.31
  C 177.10 239.51 173.88 233.13 175.02 226.23
  Q 177.08 213.78 191.26 213.76
  Q 209.43 213.74 227.61 213.75
  Q 233.58 213.76 236.27 212.67
  C 251.59 206.44 246.62 183.94 229.29 184.01
  Q 189.84 184.16 173.75 183.71
  C 155.16 183.20 154.72 153.66 175.50 153.86
  Q 210.45 154.20 245.40 153.95
  Q 252.52 153.90 255.74 152.43
  C 267.51 147.04 266.84 130.15 255.23 125.32
  Q 251.89 123.93 245.07 123.95
  Q 186.79 124.15 128.50 124.30
  C 116.50 124.34 108.99 109.05 117.57 99.50
  C 121.04 95.63 124.86 94.26 130.36 94.26
  Q 177.70 94.24 225.05 94.25
  Q 225.59 94.25 225.77 93.74
  C 228.23 86.75 233.01 85.01 240.36 85.01
  Q 336.90 84.98 433.44 85.01
  C 443.30 85.01 447.43 89.54 447.57 99.20
  Q 447.80 115.01 448.56 130.79
  A 0.39 0.39 0.0 0 0 449.23 131.05
  Q 459.47 120.90 469.53 110.82
  Q 474.16 106.17 476.86 104.79
  C 494.24 95.86 511.70 118.76 497.60 133.10
  Q 474.09 157.04 450.44 180.71
  A 0.30 0.30 0.0 0 1 449.93 180.50
  L 448.72 132.43
  Q 448.70 131.50 448.04 132.16
  L 344.56 235.81
  Q 343.88 236.49 343.20 235.81
  Q 326.59 219.25 309.63 202.29
  C 303.80 196.45 298.62 192.88 290.70 194.63
  C 276.16 197.85 271.34 215.02 282.15 225.59
  Z" fill="#113d22" />
    <path d="
  M 165.0717 229.7646
  A 13.79 13.79 0.0 0 1 151.3058 243.5787
  L 138.3258 243.6013
  A 13.79 13.79 0.0 0 1 124.5118 229.8354
  L 124.5083 227.8154
  A 13.79 13.79 0.0 0 1 138.2742 214.0013
  L 151.2542 213.9787
  A 13.79 13.79 0.0 0 1 165.0682 227.7446
  L 165.0717 229.7646
  Z" fill="#42ae63" />
    <path d="
  M 27.5197 346.0827
  A 7.19 6.43 0.5 0 1 20.2739 352.4498
  A 7.19 6.43 0.5 0 1 13.1403 345.9573
  A 7.19 6.43 0.5 0 1 20.3861 339.5902
  A 7.19 6.43 0.5 0 1 27.5197 346.0827
  Z" fill="#113d22" />
    <path d="
  M 84.99 358.63
  C 86.12 372.45 74.78 371.53 65.03 371.50
  C 56.24 371.46 49.78 368.66 50.81 358.47
  C 54.49 348.19 64.32 350.49 72.70 350.50
  C 79.17 350.51 83.16 352.41 84.99 358.63
  Z" fill="#42ae63" />
    <path d="
  M 147.7321 406.0051
  A 27.30 24.12 123.5 0 1 142.6867 369.9273
  A 27.30 24.12 123.5 0 1 177.8679 360.4749
  A 27.30 24.12 123.5 0 1 182.9133 396.5527
  A 27.30 24.12 123.5 0 1 147.7321 406.0051
  Z
  M 152.45 396.11
  C 156.21 401.11 163.50 401.51 168.37 398.14
  C 174.69 393.78 176.47 385.21 175.81 377.72
  C 174.93 367.63 165.91 362.95 157.32 368.30
  C 149.63 373.09 147.05 388.93 152.45 396.11
  Z" fill="#42ae63" />
    <path d="
  M 107.56 408.34
  L 113.90 358.02
  A 0.59 0.59 0.0 0 1 114.48 357.50
  L 124.63 357.50
  A 0.59 0.59 0.0 0 1 125.22 358.16
  L 120.21 399.09
  A 0.59 0.59 0.0 0 0 120.80 399.75
  L 136.67 399.75
  A 0.59 0.59 0.0 0 1 137.26 400.40
  L 136.38 408.47
  A 0.59 0.59 0.0 0 1 135.79 409.00
  L 108.15 409.00
  A 0.59 0.59 0.0 0 1 107.56 408.34
  Z" fill="#42ae63" />
    <path d="
  M 203.24 387.47
  L 200.69 408.20
  A 0.91 0.91 0.0 0 1 199.79 409.00
  L 190.09 409.00
  Q 189.17 409.00 189.29 408.09
  L 195.34 358.40
  A 1.02 1.02 0.0 0 1 196.35 357.50
  L 205.95 357.50
  A 0.85 0.85 0.0 0 1 206.79 358.46
  L 204.36 378.00
  A 0.60 0.60 0.0 0 0 204.94 378.68
  C 206.88 378.74 208.55 378.25 209.81 376.59
  Q 217.28 366.77 220.85 361.32
  C 223.68 357.01 226.40 357.77 230.83 357.56
  Q 233.50 357.43 236.18 357.53
  Q 237.07 357.56 236.52 358.27
  L 218.45 381.53
  Q 218.15 381.92 218.53 382.23
  Q 220.42 383.74 220.91 384.82
  Q 226.12 396.23 231.24 407.51
  A 0.38 0.38 0.0 0 0 231.93 407.52
  L 255.53 358.09
  Q 255.79 357.54 256.40 357.55
  L 266.80 357.59
  A 0.82 0.81 83.2 0 1 267.59 358.22
  L 279.34 408.51
  A 0.45 0.44 83.9 0 1 278.90 409.06
  L 269.30 408.85
  A 2.17 2.17 0.0 0 1 267.21 407.03
  L 265.75 397.82
  Q 265.66 397.25 265.07 397.25
  L 248.63 397.25
  Q 248.05 397.25 247.83 397.78
  L 244.29 406.16
  A 4.56 4.55 -78.9 0 1 240.16 408.94
  C 233.82 409.04 224.83 409.95 218.91 408.40
  Q 218.41 408.27 218.18 407.80
  Q 214.02 399.09 210.27 390.22
  C 208.92 387.02 206.93 386.07 203.67 386.98
  A 0.61 0.59 -4.7 0 0 203.24 387.47
  Z
  M 260.08 369.36
  C 256.79 375.47 254.21 382.16 251.56 388.59
  Q 251.29 389.25 252.00 389.25
  L 263.52 389.25
  Q 264.22 389.25 264.09 388.56
  L 260.63 369.44
  Q 260.48 368.61 260.08 369.36
  Z" fill="#42ae63" />
    <path d="
  M 295.64 399.75
  L 311.49 399.75
  A 0.64 0.64 0.0 0 1 312.12 400.47
  L 311.06 408.44
  A 0.64 0.64 0.0 0 1 310.43 409.00
  L 282.97 409.00
  A 0.64 0.64 0.0 0 1 282.33 408.28
  L 288.61 358.06
  A 0.64 0.64 0.0 0 1 289.24 357.50
  L 299.34 357.50
  A 0.64 0.64 0.0 0 1 299.97 358.22
  L 295.01 399.03
  A 0.64 0.64 0.0 0 0 295.64 399.75
  Z" fill="#42ae63" />
    <path d="
  M 329.17 400.00
  L 347.21 400.00
  A 0.51 0.51 0.0 0 1 347.72 400.58
  L 346.61 408.56
  A 0.51 0.51 0.0 0 1 346.11 409.00
  L 316.46 409.00
  A 0.51 0.51 0.0 0 1 315.95 408.43
  L 322.30 357.95
  A 0.51 0.51 0.0 0 1 322.81 357.50
  L 352.28 357.50
  A 0.51 0.51 0.0 0 1 352.78 358.08
  L 351.70 366.08
  A 0.51 0.51 0.0 0 1 351.19 366.52
  L 333.26 366.41
  A 0.51 0.51 0.0 0 0 332.75 366.86
  L 331.32 378.22
  A 0.51 0.51 0.0 0 0 331.83 378.80
  L 345.20 378.72
  A 0.51 0.51 0.0 0 1 345.71 379.30
  L 344.65 386.81
  A 0.51 0.51 0.0 0 1 344.15 387.25
  L 330.63 387.25
  A 0.51 0.51 0.0 0 0 330.12 387.70
  L 328.66 399.43
  A 0.51 0.51 0.0 0 0 329.17 400.00
  Z" fill="#42ae63" />
    <path d="
  M 386.31 376.51
  A 0.26 0.26 0.0 0 0 385.81 376.56
  L 381.95 408.29
  A 0.81 0.81 0.0 0 1 381.15 409.00
  L 372.31 409.00
  A 0.51 0.50 -86.5 0 1 371.81 408.43
  L 378.12 358.23
  Q 378.22 357.44 379.01 357.45
  L 388.42 357.61
  A 2.12 2.11 -8.7 0 1 390.40 359.06
  L 400.59 390.06
  A 0.33 0.32 50.7 0 0 401.18 390.12
  L 418.94 359.35
  A 3.46 3.46 0.0 0 1 421.93 357.63
  L 431.02 357.64
  Q 431.60 357.65 431.53 358.21
  L 425.52 408.38
  Q 425.46 408.95 424.88 408.95
  L 415.97 409.02
  A 0.65 0.64 3.4 0 1 415.32 408.29
  L 419.42 376.23
  A 0.16 0.16 0.0 0 0 419.13 376.13
  Q 411.88 388.41 404.33 400.63
  C 402.24 404.02 396.19 404.75 394.65 400.40
  Q 390.38 388.40 386.31 376.51
  Z" fill="#42ae63" />
    <path d="
  M 457.49 357.54
  C 459.72 357.65 461.98 357.40 464.21 357.67
  Q 464.66 357.73 464.76 358.17
  L 476.47 408.35
  A 0.58 0.58 0.0 0 1 475.89 409.07
  L 466.48 408.82
  A 2.31 2.30 -3.7 0 1 464.26 406.88
  L 462.84 397.75
  A 0.59 0.59 0.0 0 0 462.26 397.25
  L 445.74 397.25
  Q 445.22 397.25 445.02 397.73
  L 441.44 406.43
  A 3.98 3.97 10.6 0 1 437.84 408.89
  L 429.28 409.05
  A 0.67 0.67 0.0 0 1 428.67 408.09
  Q 440.36 384.12 451.95 359.73
  C 453.16 357.17 455.00 357.40 457.49 357.54
  Z
  M 457.78 368.89
  A 0.35 0.35 0.0 0 0 457.11 368.81
  L 448.69 388.76
  A 0.35 0.35 0.0 0 0 449.02 389.25
  L 460.95 389.25
  A 0.35 0.35 0.0 0 0 461.30 388.84
  L 457.78 368.89
  Z" fill="#42ae63" />
    <path d="
  M 513.37 390.00
  L 517.30 358.22
  Q 517.37 357.63 517.97 357.62
  L 526.17 357.47
  A 1.07 1.07 0.0 0 1 527.26 358.68
  L 521.19 408.04
  A 1.24 1.23 -84.3 0 1 519.88 409.12
  L 512.95 408.65
  Q 512.33 408.61 512.02 408.07
  L 494.26 376.78
  Q 493.53 375.49 493.36 376.96
  L 489.66 408.51
  Q 489.61 408.93 489.18 408.93
  L 480.09 409.03
  A 0.62 0.62 0.0 0 1 479.47 408.33
  L 485.84 358.30
  Q 485.91 357.77 486.44 357.71
  Q 489.69 357.31 493.24 357.83
  Q 494.36 357.99 494.87 358.85
  Q 503.97 374.43 512.83 390.10
  A 0.29 0.29 0.0 0 0 513.37 390.00
  Z" fill="#42ae63" />
    <path d="
  M 575.00 377.33
  L 575.00 383.01
  C 572.81 398.71 562.54 408.22 547.04 408.84
  Q 538.11 409.19 529.08 408.93
  A 0.56 0.55 -85.8 0 1 528.54 408.30
  L 534.77 358.04
  A 0.59 0.58 -86.1 0 1 535.35 357.53
  C 552.41 357.28 571.80 354.86 575.00 377.33
  Z
  M 559.01 369.00
  C 555.21 365.61 550.54 366.60 546.09 366.25
  A 0.98 0.97 -84.2 0 0 545.04 367.11
  L 541.27 399.48
  Q 541.21 399.97 541.71 399.98
  C 550.98 400.17 557.39 400.08 561.41 390.39
  C 564.01 384.10 564.64 374.05 559.01 369.00
  Z" fill="#42ae63" />
    <path d="
  M 50.81 358.47
  C 49.78 368.66 56.24 371.46 65.03 371.50
  C 74.78 371.53 86.12 372.45 84.99 358.63
  Q 97.73 357.14 101.27 368.17
  C 103.03 373.67 99.64 380.68 94.52 383.20
  Q 91.93 384.48 86.14 384.49
  Q 51.43 384.50 16.72 384.51
  C 7.65 384.51 1.78 382.33 0.00 372.91
  L 0.00 369.95
  C 2.01 360.14 8.26 358.50 17.73 358.51
  Q 34.22 358.52 50.81 358.47
  Z" fill="#113d22" />
</svg>
